<svg width="121" height="12" viewBox="0 0 121 12" fill="none" xmlns="http://www.w3.org/2000/svg">
<path d="M5.21748 10.168C3.79882 10.168 2.61348 9.72 1.66148 8.824C0.718818 7.91867 0.247484 6.75667 0.247484 5.338C0.247484 3.91933 0.718818 2.762 1.66148 1.866C2.61348 0.960666 3.79882 0.508 5.21748 0.508C6.96282 0.508 8.26482 1.26867 9.12348 2.79L7.41548 3.63C7.21015 3.238 6.90682 2.916 6.50548 2.664C6.11348 2.40267 5.68415 2.272 5.21748 2.272C4.36815 2.272 3.66815 2.56133 3.11748 3.14C2.56682 3.71867 2.29148 4.45133 2.29148 5.338C2.29148 6.22467 2.56682 6.95733 3.11748 7.536C3.66815 8.11467 4.36815 8.404 5.21748 8.404C5.68415 8.404 6.11348 8.278 6.50548 8.026C6.90682 7.774 7.21015 7.44733 7.41548 7.046L9.12348 7.872C8.23682 9.40267 6.93482 10.168 5.21748 10.168ZM9.53911 11.722V8.516C9.74444 8.47867 9.90311 8.41333 10.0151 8.32C10.1364 8.21733 10.2484 8.026 10.3511 7.746C10.4631 7.45667 10.5518 7.046 10.6171 6.514L11.0511 3.238H16.5251V8.446H17.2671V11.722H15.4891V10H11.3311V11.722H9.53911ZM12.6051 4.792L12.3951 6.626C12.3018 7.438 12.0404 8.04467 11.6111 8.446H14.7471V4.792H12.6051ZM21.5639 10.168C20.5186 10.168 19.6552 9.84133 18.9739 9.188C18.2926 8.53467 17.9519 7.676 17.9519 6.612C17.9519 5.61333 18.2786 4.77333 18.9319 4.092C19.5946 3.41067 20.4346 3.07 21.4519 3.07C22.4599 3.07 23.2766 3.41533 23.9019 4.106C24.5272 4.78733 24.8399 5.68333 24.8399 6.794V7.186H19.8139C19.8699 7.634 20.0706 8.00733 20.4159 8.306C20.7612 8.60467 21.2092 8.754 21.7599 8.754C22.0586 8.754 22.3806 8.69333 22.7259 8.572C23.0806 8.45067 23.3606 8.28733 23.5659 8.082L24.3499 9.23C23.6686 9.85533 22.7399 10.168 21.5639 10.168ZM23.1179 5.982C23.0899 5.59933 22.9359 5.254 22.6559 4.946C22.3852 4.638 21.9839 4.484 21.4519 4.484C20.9479 4.484 20.5559 4.638 20.2759 4.946C19.9959 5.24467 19.8326 5.59 19.7859 5.982H23.1179ZM25.4942 10.168V8.712C25.7742 8.712 25.9982 8.54867 26.1662 8.222C26.3342 7.886 26.4695 7.31667 26.5722 6.514L27.0062 3.238H32.4802V10H30.7022V4.792H28.5602L28.3362 6.724C28.1962 7.90933 27.8975 8.782 27.4402 9.342C26.9922 9.89267 26.3435 10.168 25.4942 10.168ZM40.0833 10H38.3053V9.3C37.8199 9.87867 37.1059 10.168 36.1633 10.168C35.5566 10.168 35.0106 9.972 34.5253 9.58C34.0493 9.17867 33.8113 8.628 33.8113 7.928C33.8113 7.2 34.0446 6.654 34.5113 6.29C34.9873 5.926 35.5379 5.744 36.1633 5.744C37.1246 5.744 37.8386 6.01933 38.3053 6.57V5.66C38.3053 5.31467 38.1699 5.03933 37.8993 4.834C37.6286 4.62867 37.2693 4.526 36.8213 4.526C36.0839 4.526 35.4259 4.792 34.8473 5.324L34.1753 4.134C34.9779 3.42467 35.9626 3.07 37.1293 3.07C37.9973 3.07 38.7066 3.27067 39.2573 3.672C39.8079 4.07333 40.0833 4.72667 40.0833 5.632V10ZM36.8773 8.964C37.5399 8.964 38.0159 8.768 38.3053 8.376V7.536C38.0159 7.144 37.5399 6.948 36.8773 6.948C36.5133 6.948 36.2099 7.04133 35.9673 7.228C35.7246 7.40533 35.6033 7.65267 35.6033 7.97C35.6033 8.278 35.7246 8.52067 35.9673 8.698C36.2099 8.87533 36.5133 8.964 36.8773 8.964ZM43.6248 10H41.8468V3.238H43.6248V5.744H46.4248V3.238H48.2028V10H46.4248V7.298H43.6248V10ZM55.7079 9.146C55.0546 9.82733 54.1866 10.168 53.1039 10.168C52.0213 10.168 51.1533 9.82733 50.4999 9.146C49.8559 8.45533 49.5339 7.61067 49.5339 6.612C49.5339 5.61333 49.8559 4.77333 50.4999 4.092C51.1533 3.41067 52.0213 3.07 53.1039 3.07C54.1866 3.07 55.0546 3.41067 55.7079 4.092C56.3613 4.77333 56.6879 5.61333 56.6879 6.612C56.6879 7.61067 56.3613 8.45533 55.7079 9.146ZM51.8439 8.026C52.1519 8.39933 52.5719 8.586 53.1039 8.586C53.6359 8.586 54.0559 8.39933 54.3639 8.026C54.6813 7.64333 54.8399 7.172 54.8399 6.612C54.8399 6.06133 54.6813 5.59933 54.3639 5.226C54.0559 4.84333 53.6359 4.652 53.1039 4.652C52.5719 4.652 52.1519 4.84333 51.8439 5.226C51.5359 5.59933 51.3819 6.06133 51.3819 6.612C51.3819 7.172 51.5359 7.64333 51.8439 8.026ZM68.029 10H66.237V9.132C65.6864 9.82267 64.991 10.168 64.151 10.168C63.2737 10.168 62.555 9.85533 61.995 9.23C61.435 8.59533 61.155 7.72733 61.155 6.626C61.155 5.54333 61.435 4.68 61.995 4.036C62.555 3.392 63.2737 3.07 64.151 3.07C65.0097 3.07 65.705 3.41533 66.237 4.106V0.661999H68.029V10ZM64.697 8.586C64.9957 8.586 65.2897 8.516 65.579 8.376C65.8684 8.22667 66.0877 8.04 66.237 7.816V5.422C66.0877 5.198 65.8684 5.016 65.579 4.876C65.2897 4.72667 64.9957 4.652 64.697 4.652C64.193 4.652 63.7824 4.834 63.465 5.198C63.1477 5.562 62.989 6.038 62.989 6.626C62.989 7.20467 63.1477 7.676 63.465 8.04C63.7824 8.404 64.193 8.586 64.697 8.586ZM72.6902 7.368H69.3302V5.856H72.6902V7.368ZM77.1674 10.168C76.1221 10.168 75.2588 9.84133 74.5774 9.188C73.8961 8.53467 73.5554 7.676 73.5554 6.612C73.5554 5.61333 73.8821 4.77333 74.5354 4.092C75.1981 3.41067 76.0381 3.07 77.0554 3.07C78.0634 3.07 78.8801 3.41533 79.5054 4.106C80.1308 4.78733 80.4434 5.68333 80.4434 6.794V7.186H75.4174C75.4734 7.634 75.6741 8.00733 76.0194 8.306C76.3648 8.60467 76.8128 8.754 77.3634 8.754C77.6621 8.754 77.9841 8.69333 78.3294 8.572C78.6841 8.45067 78.9641 8.28733 79.1694 8.082L79.9534 9.23C79.2721 9.85533 78.3434 10.168 77.1674 10.168ZM78.7214 5.982C78.6934 5.59933 78.5394 5.254 78.2594 4.946C77.9888 4.638 77.5874 4.484 77.0554 4.484C76.5514 4.484 76.1594 4.638 75.8794 4.946C75.5994 5.24467 75.4361 5.59 75.3894 5.982H78.7214ZM84.6257 7.368H81.2657V5.856H84.6257V7.368ZM92.267 10H90.489V5.912C90.489 5.072 90.0736 4.652 89.243 4.652C88.599 4.652 88.0856 4.918 87.703 5.45V10H85.925V3.238H87.703V4.12C88.291 3.42 89.0796 3.07 90.069 3.07C90.797 3.07 91.343 3.26133 91.707 3.644C92.0803 4.02667 92.267 4.554 92.267 5.226V10ZM95.7404 9.818C95.5164 10.042 95.2504 10.154 94.9424 10.154C94.6344 10.154 94.3684 10.042 94.1444 9.818C93.9204 9.594 93.8084 9.328 93.8084 9.02C93.8084 8.712 93.9204 8.446 94.1444 8.222C94.3684 7.998 94.6344 7.886 94.9424 7.886C95.2504 7.886 95.5164 7.998 95.7404 8.222C95.9644 8.446 96.0764 8.712 96.0764 9.02C96.0764 9.328 95.9644 9.594 95.7404 9.818ZM98.4964 2.51C98.2071 2.51 97.9551 2.40733 97.7404 2.202C97.5351 1.98733 97.4324 1.73533 97.4324 1.446C97.4324 1.15667 97.5351 0.909333 97.7404 0.704C97.9551 0.498666 98.2071 0.395999 98.4964 0.395999C98.7951 0.395999 99.0471 0.498666 99.2524 0.704C99.4578 0.909333 99.5604 1.15667 99.5604 1.446C99.5604 1.73533 99.4578 1.98733 99.2524 2.202C99.0471 2.40733 98.7951 2.51 98.4964 2.51ZM99.3924 10H97.6144V3.238H99.3924V10ZM107.497 10H105.719V5.912C105.719 5.072 105.304 4.652 104.473 4.652C103.829 4.652 103.316 4.918 102.933 5.45V10H101.155V3.238H102.933V4.12C103.521 3.42 104.31 3.07 105.299 3.07C106.027 3.07 106.573 3.26133 106.937 3.644C107.311 4.02667 107.497 4.554 107.497 5.226V10ZM111.447 10H109.655V4.792H108.535V3.238H109.655V2.874C109.655 2.15533 109.865 1.586 110.285 1.166C110.705 0.736666 111.256 0.521999 111.937 0.521999C112.721 0.521999 113.309 0.731999 113.701 1.152L113.029 2.202C112.842 2.01533 112.595 1.922 112.287 1.922C112.035 1.922 111.83 2.006 111.671 2.174C111.522 2.33267 111.447 2.566 111.447 2.874V3.238H112.819V4.792H111.447V10ZM119.583 9.146C118.93 9.82733 118.062 10.168 116.979 10.168C115.896 10.168 115.028 9.82733 114.375 9.146C113.731 8.45533 113.409 7.61067 113.409 6.612C113.409 5.61333 113.731 4.77333 114.375 4.092C115.028 3.41067 115.896 3.07 116.979 3.07C118.062 3.07 118.93 3.41067 119.583 4.092C120.236 4.77333 120.563 5.61333 120.563 6.612C120.563 7.61067 120.236 8.45533 119.583 9.146ZM115.719 8.026C116.027 8.39933 116.447 8.586 116.979 8.586C117.511 8.586 117.931 8.39933 118.239 8.026C118.556 7.64333 118.715 7.172 118.715 6.612C118.715 6.06133 118.556 5.59933 118.239 5.226C117.931 4.84333 117.511 4.652 116.979 4.652C116.447 4.652 116.027 4.84333 115.719 5.226C115.411 5.59933 115.257 6.06133 115.257 6.612C115.257 7.172 115.411 7.64333 115.719 8.026Z" fill="white"/>
</svg>
