<svg width="142" height="13" viewBox="0 0 142 13" fill="none" xmlns="http://www.w3.org/2000/svg">
<path d="M8.862 1.908C9.80467 2.85067 10.276 3.98933 10.276 5.324C10.276 6.65867 9.80467 7.79733 8.862 8.74C7.91933 9.68267 6.78067 10.154 5.446 10.154C4.11133 10.154 2.97267 9.68267 2.03 8.74C1.08733 7.788 0.616 6.64933 0.616 5.324C0.616 3.98933 1.08733 2.85067 2.03 1.908C2.97267 0.965333 4.11133 0.494 5.446 0.494C6.78067 0.494 7.91933 0.965333 8.862 1.908ZM8.554 8.432C9.41267 7.57333 9.842 6.53733 9.842 5.324C9.842 4.11067 9.41267 3.07467 8.554 2.216C7.69533 1.35733 6.65933 0.928 5.446 0.928C4.23267 0.928 3.19667 1.35733 2.338 2.216C1.47933 3.07467 1.05 4.11067 1.05 5.324C1.05 6.53733 1.47933 7.57333 2.338 8.432C3.19667 9.29067 4.23267 9.72 5.446 9.72C6.65933 9.72 7.69533 9.29067 8.554 8.432ZM7.168 7.032L7.532 7.382C7 7.998 6.314 8.306 5.474 8.306C4.662 8.306 3.97133 8.02133 3.402 7.452C2.842 6.87333 2.562 6.15933 2.562 5.31C2.562 4.46067 2.842 3.75133 3.402 3.182C3.97133 2.61267 4.662 2.328 5.474 2.328C6.314 2.328 6.99533 2.636 7.518 3.252L7.168 3.588C6.99067 3.34533 6.74333 3.154 6.426 3.014C6.118 2.86467 5.80067 2.79 5.474 2.79C4.82067 2.79 4.256 3.028 3.78 3.504C3.31333 3.97067 3.08 4.57267 3.08 5.31C3.08 6.02867 3.318 6.63067 3.794 7.116C4.27 7.60133 4.83 7.844 5.474 7.844C5.81 7.844 6.12733 7.76933 6.426 7.62C6.734 7.47067 6.98133 7.27467 7.168 7.032ZM21.6739 10H15.2619V9.076C16.2325 8.31067 16.9839 7.704 17.5159 7.256C18.0572 6.79867 18.5752 6.318 19.0699 5.814C19.5739 5.30067 19.9285 4.848 20.1339 4.456C20.3392 4.05467 20.4419 3.658 20.4419 3.266C20.4419 2.706 20.2505 2.28133 19.8679 1.992C19.4852 1.70267 19.0279 1.558 18.4959 1.558C17.4225 1.558 16.5779 1.95 15.9619 2.734L15.2479 1.992C15.6025 1.52533 16.0645 1.166 16.6339 0.913999C17.2125 0.652666 17.8332 0.521999 18.4959 0.521999C19.3452 0.521999 20.0779 0.759999 20.6939 1.236C21.3192 1.712 21.6319 2.38867 21.6319 3.266C21.6319 4.134 21.2585 5.002 20.5119 5.87C19.7652 6.72867 18.6265 7.76 17.0959 8.964H21.6739V10ZM27.0203 10.168C26.4043 10.168 25.8583 10.028 25.3823 9.748C24.9157 9.45867 24.5423 9.076 24.2623 8.6C23.9917 8.124 23.7863 7.61067 23.6463 7.06C23.5157 6.50933 23.4503 5.93533 23.4503 5.338C23.4503 4.74067 23.5157 4.16667 23.6463 3.616C23.7863 3.06533 23.9917 2.55667 24.2623 2.09C24.5423 1.614 24.9157 1.236 25.3823 0.956C25.8583 0.666666 26.4043 0.521999 27.0203 0.521999C27.627 0.521999 28.1683 0.666666 28.6443 0.956C29.1203 1.236 29.4937 1.614 29.7643 2.09C30.0443 2.55667 30.2497 3.06533 30.3803 3.616C30.5203 4.16667 30.5903 4.74067 30.5903 5.338C30.5903 5.93533 30.5203 6.50933 30.3803 7.06C30.2497 7.61067 30.0443 8.124 29.7643 8.6C29.4937 9.076 29.1203 9.45867 28.6443 9.748C28.1683 10.028 27.627 10.168 27.0203 10.168ZM25.6203 8.558C25.9937 8.94067 26.4603 9.132 27.0203 9.132C27.5803 9.132 28.047 8.94067 28.4203 8.558C28.7937 8.166 29.0503 7.69933 29.1903 7.158C29.3303 6.61667 29.4003 6.01 29.4003 5.338C29.4003 4.666 29.3303 4.05933 29.1903 3.518C29.0503 2.97667 28.7937 2.51467 28.4203 2.132C28.047 1.74933 27.5803 1.558 27.0203 1.558C26.4603 1.558 25.9937 1.74933 25.6203 2.132C25.247 2.51467 24.9903 2.97667 24.8503 3.518C24.7103 4.05933 24.6403 4.666 24.6403 5.338C24.6403 6.01 24.7103 6.61667 24.8503 7.158C24.9903 7.69933 25.247 8.166 25.6203 8.558ZM34.9626 10H33.8006V2.202L32.3026 3.784L31.6026 3.07L33.9406 0.661999H34.9626V10ZM42.5067 9.482C41.8721 9.93933 41.0787 10.168 40.1267 10.168C39.1747 10.168 38.3767 9.93933 37.7327 9.482C37.0981 9.02467 36.7807 8.40867 36.7807 7.634C36.7807 7.046 36.9907 6.53733 37.4107 6.108C37.8401 5.67867 38.3721 5.37067 39.0067 5.184C38.4094 5.016 37.9147 4.74533 37.5227 4.372C37.1307 3.98933 36.9347 3.51333 36.9347 2.944C36.9347 2.16 37.2521 1.56267 37.8867 1.152C38.5214 0.731999 39.2681 0.521999 40.1267 0.521999C40.9854 0.521999 41.7321 0.731999 42.3667 1.152C43.0107 1.56267 43.3327 2.16 43.3327 2.944C43.3327 3.51333 43.1367 3.98933 42.7447 4.372C42.3527 4.74533 41.8534 5.016 41.2467 5.184C41.8814 5.37067 42.4087 5.67867 42.8287 6.108C43.2581 6.53733 43.4727 7.046 43.4727 7.634C43.4727 8.39933 43.1507 9.01533 42.5067 9.482ZM40.1267 4.708C40.3134 4.68 40.5001 4.63333 40.6867 4.568C40.8827 4.50267 41.1021 4.414 41.3447 4.302C41.5874 4.18067 41.7834 4.01733 41.9327 3.812C42.0821 3.59733 42.1567 3.35933 42.1567 3.098C42.1567 2.63133 41.9607 2.258 41.5687 1.978C41.1861 1.698 40.7054 1.558 40.1267 1.558C39.5387 1.558 39.0534 1.698 38.6707 1.978C38.2881 2.258 38.0967 2.63133 38.0967 3.098C38.0967 3.35933 38.1714 3.59733 38.3207 3.812C38.4701 4.01733 38.6661 4.18067 38.9087 4.302C39.1514 4.414 39.3661 4.50267 39.5527 4.568C39.7487 4.624 39.9401 4.67067 40.1267 4.708ZM40.1267 9.132C40.7241 9.132 41.2327 8.98267 41.6527 8.684C42.0821 8.38533 42.2967 7.99333 42.2967 7.508C42.2967 7.13467 42.1474 6.808 41.8487 6.528C41.5594 6.23867 41.2607 6.038 40.9527 5.926C40.6541 5.80467 40.3787 5.73 40.1267 5.702C39.8747 5.73 39.5947 5.80467 39.2867 5.926C38.9881 6.038 38.6894 6.23867 38.3907 6.528C38.0921 6.808 37.9427 7.13467 37.9427 7.508C37.9427 7.99333 38.1527 8.38533 38.5727 8.684C39.0021 8.98267 39.5201 9.132 40.1267 9.132ZM47.9675 7.074H44.6075V6.15H47.9675V7.074ZM55.5528 10H49.1408V9.076C50.1114 8.31067 50.8628 7.704 51.3948 7.256C51.9361 6.79867 52.4541 6.318 52.9488 5.814C53.4528 5.30067 53.8074 4.848 54.0128 4.456C54.2181 4.05467 54.3208 3.658 54.3208 3.266C54.3208 2.706 54.1294 2.28133 53.7468 1.992C53.3641 1.70267 52.9068 1.558 52.3748 1.558C51.3014 1.558 50.4568 1.95 49.8408 2.734L49.1268 1.992C49.4814 1.52533 49.9434 1.166 50.5128 0.913999C51.0914 0.652666 51.7121 0.521999 52.3748 0.521999C53.2241 0.521999 53.9568 0.759999 54.5728 1.236C55.1981 1.712 55.5108 2.38867 55.5108 3.266C55.5108 4.134 55.1374 5.002 54.3908 5.87C53.6441 6.72867 52.5054 7.76 50.9748 8.964H55.5528V10ZM60.8992 10.168C60.2832 10.168 59.7372 10.028 59.2612 9.748C58.7946 9.45867 58.4212 9.076 58.1412 8.6C57.8706 8.124 57.6652 7.61067 57.5252 7.06C57.3946 6.50933 57.3292 5.93533 57.3292 5.338C57.3292 4.74067 57.3946 4.16667 57.5252 3.616C57.6652 3.06533 57.8706 2.55667 58.1412 2.09C58.4212 1.614 58.7946 1.236 59.2612 0.956C59.7372 0.666666 60.2832 0.521999 60.8992 0.521999C61.5059 0.521999 62.0472 0.666666 62.5232 0.956C62.9992 1.236 63.3726 1.614 63.6432 2.09C63.9232 2.55667 64.1286 3.06533 64.2592 3.616C64.3992 4.16667 64.4692 4.74067 64.4692 5.338C64.4692 5.93533 64.3992 6.50933 64.2592 7.06C64.1286 7.61067 63.9232 8.124 63.6432 8.6C63.3726 9.076 62.9992 9.45867 62.5232 9.748C62.0472 10.028 61.5059 10.168 60.8992 10.168ZM59.4992 8.558C59.8726 8.94067 60.3392 9.132 60.8992 9.132C61.4592 9.132 61.9259 8.94067 62.2992 8.558C62.6726 8.166 62.9292 7.69933 63.0692 7.158C63.2092 6.61667 63.2792 6.01 63.2792 5.338C63.2792 4.666 63.2092 4.05933 63.0692 3.518C62.9292 2.97667 62.6726 2.51467 62.2992 2.132C61.9259 1.74933 61.4592 1.558 60.8992 1.558C60.3392 1.558 59.8726 1.74933 59.4992 2.132C59.1259 2.51467 58.8692 2.97667 58.7292 3.518C58.5892 4.05933 58.5192 4.666 58.5192 5.338C58.5192 6.01 58.5892 6.61667 58.7292 7.158C58.8692 7.69933 59.1259 8.166 59.4992 8.558ZM72.3555 10H65.9435V9.076C66.9142 8.31067 67.6655 7.704 68.1975 7.256C68.7388 6.79867 69.2568 6.318 69.7515 5.814C70.2555 5.30067 70.6102 4.848 70.8155 4.456C71.0208 4.05467 71.1235 3.658 71.1235 3.266C71.1235 2.706 70.9322 2.28133 70.5495 1.992C70.1668 1.70267 69.7095 1.558 69.1775 1.558C68.1042 1.558 67.2595 1.95 66.6435 2.734L65.9295 1.992C66.2842 1.52533 66.7462 1.166 67.3155 0.913999C67.8942 0.652666 68.5148 0.521999 69.1775 0.521999C70.0268 0.521999 70.7595 0.759999 71.3755 1.236C72.0008 1.712 72.3135 2.38867 72.3135 3.266C72.3135 4.134 71.9402 5.002 71.1935 5.87C70.4468 6.72867 69.3082 7.76 67.7775 8.964H72.3555V10ZM80.586 10H74.174V9.076C75.1446 8.31067 75.896 7.704 76.428 7.256C76.9693 6.79867 77.4873 6.318 77.982 5.814C78.486 5.30067 78.8406 4.848 79.046 4.456C79.2513 4.05467 79.354 3.658 79.354 3.266C79.354 2.706 79.1626 2.28133 78.78 1.992C78.3973 1.70267 77.94 1.558 77.408 1.558C76.3346 1.558 75.49 1.95 74.874 2.734L74.16 1.992C74.5146 1.52533 74.9766 1.166 75.546 0.913999C76.1246 0.652666 76.7453 0.521999 77.408 0.521999C78.2573 0.521999 78.99 0.759999 79.606 1.236C80.2313 1.712 80.544 2.38867 80.544 3.266C80.544 4.134 80.1706 5.002 79.424 5.87C78.6773 6.72867 77.5386 7.76 76.008 8.964H80.586V10ZM93.1258 10H91.7538L89.3738 6.29H87.5118V10H86.3498V0.661999H90.1018C90.9698 0.661999 91.6745 0.918666 92.2158 1.432C92.7571 1.94533 93.0278 2.62667 93.0278 3.476C93.0278 4.27867 92.7945 4.918 92.3278 5.394C91.8611 5.87 91.2871 6.136 90.6058 6.192L93.1258 10ZM89.9618 5.268C90.5125 5.268 90.9605 5.1 91.3058 4.764C91.6511 4.428 91.8238 3.99867 91.8238 3.476C91.8238 2.95333 91.6511 2.52867 91.3058 2.202C90.9605 1.866 90.5125 1.698 89.9618 1.698H87.5118V5.268H89.9618ZM95.3434 2.272C95.1567 2.272 94.9934 2.20667 94.8534 2.076C94.7134 1.936 94.6434 1.768 94.6434 1.572C94.6434 1.376 94.7134 1.208 94.8534 1.068C94.9934 0.927999 95.1567 0.857999 95.3434 0.857999C95.5394 0.857999 95.7074 0.927999 95.8474 1.068C95.9874 1.208 96.0574 1.376 96.0574 1.572C96.0574 1.768 95.9874 1.936 95.8474 2.076C95.7074 2.20667 95.5394 2.272 95.3434 2.272ZM95.8754 10H94.8254V3.238H95.8754V10ZM99.6779 10.168C99.1833 10.168 98.8099 10.0327 98.5579 9.762C98.3059 9.49133 98.1799 9.09933 98.1799 8.586V4.162H97.0599V3.238H98.1799V1.39H99.2299V3.238H100.602V4.162H99.2299V8.362C99.2299 8.62333 99.2859 8.83333 99.3979 8.992C99.5193 9.15067 99.6919 9.23 99.9159 9.23C100.224 9.23 100.462 9.13667 100.63 8.95L100.938 9.734C100.63 10.0233 100.21 10.168 99.6779 10.168ZM111.297 10H110.247V5.408C110.247 4.47467 109.832 4.008 109.001 4.008C108.665 4.008 108.329 4.11067 107.993 4.316C107.657 4.52133 107.396 4.764 107.209 5.044V10H106.159V5.408C106.159 4.47467 105.744 4.008 104.913 4.008C104.586 4.008 104.255 4.11067 103.919 4.316C103.592 4.52133 103.331 4.76867 103.135 5.058V10H102.085V3.238H103.135V4.218C103.303 3.95667 103.597 3.7 104.017 3.448C104.437 3.196 104.871 3.07 105.319 3.07C105.814 3.07 106.215 3.18667 106.523 3.42C106.831 3.65333 107.036 3.95667 107.139 4.33C107.344 3.994 107.657 3.7 108.077 3.448C108.497 3.196 108.94 3.07 109.407 3.07C110.667 3.07 111.297 3.75133 111.297 5.114V10ZM116.458 10.168C114.946 10.168 113.751 9.67333 112.874 8.684L113.56 7.802C114.353 8.68867 115.333 9.132 116.5 9.132C117.256 9.132 117.811 8.97333 118.166 8.656C118.52 8.32933 118.698 7.95133 118.698 7.522C118.698 7.19533 118.595 6.92 118.39 6.696C118.184 6.472 117.918 6.29933 117.592 6.178C117.274 6.04733 116.915 5.93067 116.514 5.828C116.122 5.72533 115.73 5.61333 115.338 5.492C114.946 5.36133 114.586 5.20733 114.26 5.03C113.942 4.85267 113.681 4.60067 113.476 4.274C113.27 3.94733 113.168 3.56 113.168 3.112C113.168 2.34667 113.471 1.726 114.078 1.25C114.684 0.764666 115.45 0.521999 116.374 0.521999C117.764 0.521999 118.87 0.955999 119.692 1.824L118.992 2.678C118.31 1.93133 117.41 1.558 116.29 1.558C115.73 1.558 115.268 1.698 114.904 1.978C114.549 2.24867 114.372 2.60333 114.372 3.042C114.372 3.36867 114.507 3.63933 114.778 3.854C115.058 4.06867 115.398 4.22733 115.8 4.33C116.21 4.43267 116.654 4.56333 117.13 4.722C117.615 4.87133 118.058 5.03467 118.46 5.212C118.87 5.38 119.211 5.65533 119.482 6.038C119.762 6.42067 119.902 6.88267 119.902 7.424C119.902 8.18933 119.617 8.838 119.048 9.37C118.488 9.902 117.624 10.168 116.458 10.168ZM123.071 10.168C122.576 10.168 122.203 10.0327 121.951 9.762C121.699 9.49133 121.573 9.09933 121.573 8.586V4.162H120.453V3.238H121.573V1.39H122.623V3.238H123.995V4.162H122.623V8.362C122.623 8.62333 122.679 8.83333 122.791 8.992C122.912 9.15067 123.085 9.23 123.309 9.23C123.617 9.23 123.855 9.13667 124.023 8.95L124.331 9.734C124.023 10.0233 123.603 10.168 123.071 10.168ZM125.1 12.646L125.268 11.694C125.436 11.7687 125.627 11.806 125.842 11.806C126.084 11.806 126.285 11.7547 126.444 11.652C126.602 11.5493 126.738 11.3627 126.85 11.092L127.298 10.07L124.47 3.238H125.604L127.858 8.782L130.098 3.238H131.246L127.858 11.372C127.484 12.268 126.822 12.7253 125.87 12.744C125.59 12.744 125.333 12.7113 125.1 12.646ZM133.391 10H132.341V0.661999H133.391V10ZM138.538 10.168C137.53 10.168 136.704 9.84133 136.06 9.188C135.416 8.52533 135.094 7.66667 135.094 6.612C135.094 5.62267 135.411 4.78733 136.046 4.106C136.68 3.41533 137.474 3.07 138.426 3.07C139.424 3.07 140.213 3.41533 140.792 4.106C141.38 4.78733 141.674 5.65067 141.674 6.696V6.962H136.2C136.246 7.62467 136.489 8.18 136.928 8.628C137.366 9.076 137.936 9.3 138.636 9.3C139.476 9.3 140.171 9.01533 140.722 8.446L141.226 9.132C140.535 9.82267 139.639 10.168 138.538 10.168ZM140.638 6.192C140.628 5.61333 140.432 5.09533 140.05 4.638C139.667 4.17133 139.121 3.938 138.412 3.938C137.74 3.938 137.208 4.16667 136.816 4.624C136.433 5.08133 136.228 5.604 136.2 6.192H140.638Z" fill="white"/>
</svg>
